<?xml version="1.0" encoding="UTF-8"?>
<svg width="16px" height="16px" viewBox="0 0 16 16" version="1.1" xmlns="http://www.w3.org/2000/svg" xmlns:xlink="http://www.w3.org/1999/xlink">
    <!-- Generator: Sketch 52.4 (67378) - http://www.bohemiancoding.com/sketch -->
    <title>brush-outline</title>
    <desc>Created with Sketch.</desc>
    <g id="Page-1" stroke="none" stroke-width="1" fill="none" fill-rule="evenodd">
        <g id="brush-outline" transform="translate(8.000000, 8.000000) scale(1, -1) translate(-8.000000, -8.000000) translate(-4.000000, -4.000000)" fill="#000000">
            <rect id="Rectangle" opacity="0" x="0" y="0" width="24" height="24"></rect>
            <path d="M20,6.83 C20.009952,6.07957438 19.7138825,5.35745347 19.18,4.83 C18.0620482,3.75822498 16.2979518,3.75822498 15.18,4.83 L8.58,11.43 L8.36,11.43 C6.00797394,11.4931712 4.11770752,13.3878335 4.06,15.74 L4,19 C3.99305164,19.2727025 4.09781093,19.5364069 4.29,19.73 C4.48467801,19.9054523 4.7379314,20.00176 5,20 L8.26,19.94 C10.6121665,19.8822925 12.5068288,17.9920261 12.57,15.64 L12.57,15.41 L19.18,8.81 C19.7108103,8.28869771 20.0068148,7.57395513 20,6.83 Z M8.25,17.94 L6,18 L6,15.77 C6.02183363,14.4601637 7.08998173,13.409818 8.4,13.41 C8.97721405,13.4099001 9.53022531,13.6418999 9.93459834,14.0537962 C10.3389714,14.4656924 10.5607389,15.0228859 10.55,15.6 C10.519471,16.864102 9.51338784,17.8876823 8.25,17.94 Z M17.77,7.39 L11.9,13.26 C11.7463956,13.031367 11.5723477,12.8171541 11.38,12.62 C11.1854428,12.4247576 10.9709349,12.2504699 10.74,12.1 L16.61,6.24 C16.9345963,5.93015773 17.4454037,5.93015773 17.77,6.24 C17.9235508,6.39730877 18.0065701,6.61027122 18,6.83 C18.0007356,7.03980207 17.9179858,7.24127992 17.77,7.39 Z" id="Shape" fill-rule="nonzero"></path>
        </g>
    </g>
</svg>